<svg width="24" height="24" viewBox="0 0 24 24" fill="none" xmlns="http://www.w3.org/2000/svg">
<rect width="24" height="24" rx="12" fill="#D3F36B"/>
<path fill-rule="evenodd" clip-rule="evenodd" d="M14.3116 14.5H8.96891C8.28184 14.5 7.79987 14.4087 7.44437 14.0571C7.08546 13.7055 7 13.2356 7 12.5527V11.4405C7 10.761 7.08887 10.2944 7.44437 9.94285C7.79987 9.58788 8.28184 9.49998 8.96549 9.49998H14.3116C14.9987 9.49998 15.4773 9.58788 15.8362 9.93947C16.1917 10.2911 16.2805 10.4804 16.2805 11.1667C16.2805 11.1667 16.4444 11.1667 16.7222 11.1667C16.8629 11.1667 17 11.291 17 11.4444C17 12 17 12.2778 17 12.5555C17 12.709 16.8756 12.8333 16.7222 12.8333C16.4444 12.8333 16.2805 12.8333 16.2805 12.8333C16.2805 13.5162 16.1917 13.7055 15.8362 14.0571C15.4807 14.4087 14.9987 14.5 14.3116 14.5ZM15.1901 10.5818C15.0295 10.4229 14.7628 10.3722 14.4039 10.3722H11.642L11.6386 13.6278H14.4039C14.7628 13.6278 15.0295 13.5771 15.1901 13.4182C15.3508 13.2559 15.3986 13.0024 15.3986 12.644V11.3526C15.3986 10.9942 15.3508 10.7373 15.1901 10.5818Z" fill="#24282C"/>
</svg>
