<svg width="24" height="24" viewBox="0 0 24 24" fill="none" xmlns="http://www.w3.org/2000/svg">
<rect width="24" height="24" rx="12" fill="#D3F36B"/>
<path d="M11.9959 17C13.4815 17 14.3762 16.6222 14.3762 15.9757C14.3762 15.3837 13.6047 15.0143 12.3078 14.9597V13.1587C13.9371 13.0411 15 11.9748 15 10.4131C15 9.54828 14.643 8.41058 14.1259 7.60034C13.8837 7.21411 13.0999 7 12 7C10.8919 7 10.1122 7.21411 9.86594 7.60034C9.34884 8.41058 9 9.54828 9 10.4131C9 11.979 10.0629 13.0411 11.6922 13.1587V14.9597C10.3912 15.0101 9.6197 15.3837 9.6197 15.9757C9.6197 16.6222 10.5103 17 11.9959 17ZM12 8.03694C11.0643 8.03694 10.4364 7.92779 10.4364 7.80185C10.4364 7.6801 11.0684 7.57515 12 7.57515C12.9316 7.57515 13.5636 7.6801 13.5636 7.80185C13.5636 7.92779 12.9316 8.03694 12 8.03694Z" fill="#24282C"/>
</svg>
