<svg width="24" height="24" viewBox="0 0 24 24" fill="none" xmlns="http://www.w3.org/2000/svg">
<rect width="24" height="24" rx="12" fill="#D3F36B"/>
<path d="M9 9.64166C9 11.1623 10.0357 11.6922 10.1641 14.2442C10.1726 14.5173 10.3695 14.6804 10.6562 14.6804H13.3395C13.6262 14.6804 13.8231 14.5173 13.8317 14.2442C13.9601 11.6922 15 11.1663 15 9.64166C15 8.13738 13.6519 7 11.9957 7C10.3438 7 9 8.13331 9 9.64166ZM10.592 15.7403H13.4037C13.5835 15.7403 13.7247 15.5976 13.7247 15.4386C13.7247 15.2756 13.5835 15.137 13.4037 15.137H10.592C10.4123 15.137 10.271 15.2756 10.271 15.4386C10.271 15.5976 10.4123 15.7403 10.592 15.7403ZM11.9957 17C12.7019 17 13.2368 16.682 13.2839 16.1969H10.699C10.7418 16.682 11.2939 17 11.9957 17Z" fill="#24282C"/>
</svg>
