<svg width="24" height="24" viewBox="0 0 24 24" fill="none" xmlns="http://www.w3.org/2000/svg">
<rect width="24" height="24" rx="12" fill="#D3F36B"/>
<path fill-rule="evenodd" clip-rule="evenodd" d="M12.637 7.30201C12.5815 7.31844 12.5217 7.30927 12.4734 7.27692L12.1094 7.03308C12.0436 6.98897 11.9583 6.98897 11.8924 7.03308L11.5284 7.27692C11.4802 7.30927 11.4203 7.31844 11.3648 7.30201L10.9464 7.17817C10.8707 7.15577 10.7891 7.18136 10.739 7.24327L10.4618 7.58543C10.4251 7.63083 10.3706 7.65753 10.3127 7.65848L9.87703 7.66565C9.7982 7.66694 9.7277 7.71585 9.69771 7.79004L9.53197 8.20013C9.50998 8.25455 9.46564 8.29641 9.41067 8.31466L8.99639 8.45218C8.92144 8.47706 8.86824 8.54495 8.86108 8.62484L8.82149 9.06642C8.81624 9.12501 8.786 9.17831 8.73876 9.21223L8.38272 9.4679C8.31831 9.51416 8.28713 9.59498 8.30343 9.67347L8.39352 10.1073C8.40547 10.1649 8.39202 10.2249 8.3567 10.2715L8.09054 10.6225C8.04239 10.6861 8.03601 10.7726 8.07432 10.8428L8.28608 11.2303C8.31418 11.2817 8.3187 11.3431 8.29845 11.3982L8.14582 11.8135C8.1182 11.8887 8.13719 11.9733 8.19411 12.0288L8.50872 12.3356C8.55047 12.3763 8.57257 12.4336 8.56918 12.4924L8.54364 12.935C8.53902 13.0151 8.58168 13.0903 8.65215 13.1263L9.04166 13.3251C9.09335 13.3515 9.13106 13.3996 9.14483 13.4567L9.24273 13.8628C9.26438 13.9526 9.34351 14.0158 9.43438 14.0158H14.5675C14.6584 14.0158 14.7375 13.9526 14.7591 13.8628L14.857 13.4567C14.8708 13.3996 14.9085 13.3515 14.9602 13.3251L15.3497 13.1263C15.4202 13.0903 15.4628 13.0151 15.4582 12.935L15.4327 12.4924C15.4293 12.4336 15.4514 12.3763 15.4931 12.3356L15.8078 12.0288C15.8647 11.9733 15.8837 11.8887 15.8561 11.8135L15.7034 11.3982C15.6832 11.3431 15.6877 11.2817 15.7158 11.2303L15.9275 10.8428C15.9659 10.7726 15.9595 10.6861 15.9113 10.6225L15.6452 10.2715C15.6099 10.2249 15.5964 10.1649 15.6083 10.1073L15.6984 9.67347C15.7147 9.59498 15.6836 9.51416 15.6191 9.4679L15.2631 9.21223C15.2159 9.17831 15.1856 9.12501 15.1804 9.06642L15.1408 8.62484C15.1336 8.54495 15.0804 8.47706 15.0055 8.45218L14.5912 8.31466C14.5362 8.29641 14.4919 8.25455 14.4699 8.20013L14.3042 7.79004C14.2742 7.71585 14.2037 7.66694 14.1248 7.66565L13.6891 7.65848C13.6313 7.65753 13.5768 7.63083 13.54 7.58543L13.2629 7.24327C13.2127 7.18136 13.1312 7.15577 13.0555 7.17817L12.637 7.30201ZM12.0024 13.1111C13.1304 13.1111 14.0448 12.1807 14.0448 11.0329C14.0448 9.88519 13.1304 8.95474 12.0024 8.95474C10.8744 8.95474 9.96 9.88519 9.96 11.0329C9.96 12.1807 10.8744 13.1111 12.0024 13.1111ZM12.0024 13.6131C13.4028 13.6131 14.5381 12.4579 14.5381 11.0329C14.5381 9.60795 13.4028 8.45276 12.0024 8.45276C10.602 8.45276 9.46667 9.60795 9.46667 11.0329C9.46667 12.4579 10.602 13.6131 12.0024 13.6131ZM12 11.7089C12.3682 11.7089 12.6667 11.4051 12.6667 11.0305C12.6667 10.6559 12.3682 10.3521 12 10.3521C11.6318 10.3521 11.3333 10.6559 11.3333 11.0305C11.3333 11.4051 11.6318 11.7089 12 11.7089Z" fill="#24282C"/>
<path fill-rule="evenodd" clip-rule="evenodd" d="M8.19733 13.6082C8.08835 13.6082 8 13.6981 8 13.809V14.0383C8 14.1492 8.08835 14.2391 8.19733 14.2391H15.8027C15.9117 14.2391 16 14.1492 16 14.0383V13.809C16 13.6981 15.9117 13.6082 15.8027 13.6082H8.19733ZM16 14.9419C16 14.831 15.9117 14.7411 15.8027 14.7411H8.19733C8.08835 14.7411 8 14.831 8 14.9419V16.7992C8 16.9101 8.08835 17 8.19733 17H15.8027C15.9117 17 16 16.9101 16 16.7992V14.9419Z" fill="#24282C"/>
</svg>
