<svg width="24" height="24" viewBox="0 0 24 24" fill="none" xmlns="http://www.w3.org/2000/svg">
<rect width="24" height="24" rx="12" fill="#D3F36B"/>
<path d="M9.58376 17H14.4162C15.4405 17 16 16.4321 16 15.3962V11.4298H12.4399C11.894 11.4298 11.6232 11.1572 11.6232 10.612V7H9.58376C8.5595 7 8 7.56792 8 8.60382V15.3962C8 16.4366 8.5595 17 9.58376 17ZM12.634 10.6938H15.9594C15.9413 10.4575 15.7563 10.2349 15.4946 9.96683L13.0671 7.49977C12.819 7.24534 12.5888 7.06361 12.3542 7.04089V10.4166C12.3542 10.6029 12.449 10.6938 12.634 10.6938Z" fill="#24282C"/>
</svg>
