<svg width="24" height="24" viewBox="0 0 24 24" fill="none" xmlns="http://www.w3.org/2000/svg">
<rect width="24" height="24" rx="12" fill="#D3F36B"/>
<path d="M8.32686 16H15.6691C16.106 16 16.4364 15.8854 16.6602 15.6561C16.8867 15.4297 17 15.0955 17 14.6535V10.3076C17 9.8657 16.8867 9.5315 16.6602 9.30502C16.4364 9.07578 16.106 8.96116 15.6691 8.96116H14.589C14.4811 8.96116 14.3935 8.95426 14.3261 8.94045C14.2613 8.92387 14.202 8.89625 14.1481 8.85759C14.0968 8.81892 14.0388 8.76506 13.9741 8.69601L13.6545 8.33972C13.5494 8.22648 13.4347 8.14224 13.3107 8.087C13.1893 8.029 13.0262 8 12.8212 8H11.1586C10.9509 8 10.7864 8.029 10.665 8.087C10.5437 8.14224 10.4291 8.22648 10.3212 8.33972L10.0016 8.69601C9.90723 8.7982 9.82093 8.86863 9.74272 8.9073C9.66451 8.94321 9.54585 8.96116 9.38673 8.96116H8.32686C7.88997 8.96116 7.5596 9.07578 7.33576 9.30502C7.11192 9.5315 7 9.8657 7 10.3076V14.6535C7 15.0955 7.11192 15.4297 7.33576 15.6561C7.5596 15.8854 7.88997 16 8.32686 16ZM12 14.7033C11.6953 14.7033 11.4107 14.6466 11.1464 14.5334C10.8821 14.4174 10.6502 14.2572 10.4506 14.0528C10.2538 13.8484 10.0987 13.6109 9.98544 13.3402C9.87217 13.0696 9.81553 12.7768 9.81553 12.4619C9.81553 12.1498 9.87217 11.8584 9.98544 11.5878C10.0987 11.3171 10.2538 11.0796 10.4506 10.8752C10.6502 10.6708 10.8821 10.512 11.1464 10.3988C11.4107 10.2828 11.6953 10.2248 12 10.2248C12.4018 10.2248 12.7686 10.3242 13.1003 10.523C13.432 10.7219 13.695 10.9912 13.8892 11.3309C14.0833 11.6706 14.1804 12.0476 14.1804 12.4619C14.1804 12.7768 14.1238 13.0696 14.0105 13.3402C13.8999 13.6109 13.7449 13.8484 13.5453 14.0528C13.3457 14.2572 13.1138 14.4174 12.8495 14.5334C12.5852 14.6466 12.302 14.7033 12 14.7033ZM12 13.9617C12.2697 13.9617 12.5151 13.8954 12.7362 13.7628C12.9574 13.6275 13.1327 13.4466 13.2621 13.2201C13.3943 12.9936 13.4604 12.7409 13.4604 12.4619C13.4604 12.1857 13.3943 11.9344 13.2621 11.7079C13.1327 11.4814 12.9574 11.3005 12.7362 11.1652C12.5151 11.0299 12.2697 10.9622 12 10.9622C11.7303 10.9622 11.4849 11.0299 11.2638 11.1652C11.0426 11.3005 10.866 11.4814 10.7338 11.7079C10.6017 11.9344 10.5356 12.1857 10.5356 12.4619C10.5356 12.7409 10.6017 12.9936 10.7338 13.2201C10.866 13.4466 11.0426 13.6275 11.2638 13.7628C11.4849 13.8954 11.7303 13.9617 12 13.9617ZM14.4434 10.9415C14.4434 10.7951 14.496 10.668 14.6011 10.5603C14.709 10.4499 14.8371 10.3946 14.9854 10.3946C15.1284 10.3946 15.2524 10.4499 15.3576 10.5603C15.4655 10.668 15.5194 10.7951 15.5194 10.9415C15.5194 11.0962 15.4655 11.226 15.3576 11.3309C15.2524 11.4359 15.1284 11.4883 14.9854 11.4883C14.8371 11.4911 14.709 11.44 14.6011 11.3351C14.496 11.2273 14.4434 11.0962 14.4434 10.9415Z" fill="#24282C"/>
</svg>
