<svg width="24" height="24" viewBox="0 0 24 24" fill="none" xmlns="http://www.w3.org/2000/svg">
<rect width="24" height="24" rx="12" fill="#D3F36B"/>
<path d="M9.78153 10.5705L10.4912 9.18002C10.5477 9.06939 10.6631 8.99951 10.7893 8.99951H13.2107C13.3369 8.99951 13.4523 9.06939 13.5088 9.18002L14.2185 10.5705C14.4036 10.9332 14.5 11.3332 14.5 11.7388V15.6064C14.5 15.976 14.3501 16.3305 14.0833 16.5918C13.8165 16.8532 13.4547 17 13.0774 17H10.9226C10.5453 17 10.1835 16.8532 9.91667 16.5918C9.64988 16.3305 9.5 15.976 9.5 15.6064V11.7388C9.5 11.3332 9.59639 10.9332 9.78153 10.5705Z" fill="#24282C"/>
<path d="M10.5 7.3C10.5 7.13431 10.6343 7 10.8 7H13.2C13.3657 7 13.5 7.13431 13.5 7.3V8.3C13.5 8.46569 13.3657 8.6 13.2 8.6H10.8C10.6343 8.6 10.5 8.46569 10.5 8.3V7.3Z" fill="#24282C"/>
</svg>
