<svg width="24" height="24" viewBox="0 0 24 24" fill="none" xmlns="http://www.w3.org/2000/svg">
<rect width="24" height="24" rx="12" fill="#D3F36B"/>
<path d="M8.9185 16.8988C9.02218 16.9855 9.13919 17.0165 9.26953 16.9917C9.39987 16.967 9.5391 16.8988 9.68721 16.7874L11.9978 15.0083L14.3128 16.7874C14.4609 16.8988 14.6001 16.967 14.7305 16.9917C14.8608 17.0165 14.9778 16.9855 15.0815 16.8988C15.1852 16.8183 15.2474 16.7099 15.2681 16.5737C15.2918 16.4405 15.274 16.2826 15.2148 16.0999L14.2995 13.2617L16.6322 11.5105C16.7833 11.399 16.8885 11.2828 16.9477 11.1621C17.007 11.0382 17.0159 10.9112 16.9744 10.7812C16.9329 10.6542 16.8544 10.5597 16.7389 10.4978C16.6234 10.4328 16.4723 10.4018 16.2857 10.4049L13.4286 10.4235L12.5576 7.57135C12.5014 7.38555 12.4258 7.24465 12.331 7.14865C12.2392 7.04955 12.1281 7 11.9978 7C11.8704 7 11.7593 7.04955 11.6645 7.14865C11.5727 7.24465 11.4986 7.38555 11.4424 7.57135L10.5714 10.4235L7.71434 10.4049C7.52772 10.4018 7.37664 10.4328 7.26112 10.4978C7.14559 10.5597 7.06709 10.6542 7.02561 10.7812C6.98414 10.9112 6.99303 11.0382 7.05228 11.1621C7.11152 11.2828 7.21668 11.399 7.36776 11.5105L9.70054 13.2617L8.7852 16.0999C8.72596 16.2826 8.7067 16.4405 8.72744 16.5737C8.75113 16.7099 8.81482 16.8183 8.9185 16.8988Z" fill="#24282C"/>
</svg>
