<svg width="24" height="24" viewBox="0 0 24 24" fill="none" xmlns="http://www.w3.org/2000/svg">
<rect width="24" height="24" rx="12" fill="#D3F36B"/>
<path d="M10.2759 9.48165C10.1839 9.48165 10.1073 9.45107 10.046 9.38991C9.98774 9.32875 9.95862 9.25535 9.95862 9.16972C9.95862 9.08104 9.98774 9.00765 10.046 8.94954C10.1073 8.88838 10.1839 8.8578 10.2759 8.8578H13.8529C13.9448 8.8578 14.0199 8.88838 14.0782 8.94954C14.1395 9.00765 14.1701 9.08104 14.1701 9.16972C14.1701 9.25535 14.1395 9.32875 14.0782 9.38991C14.0199 9.45107 13.9448 9.48165 13.8529 9.48165H10.2759ZM10.2759 10.8486C10.1839 10.8486 10.1073 10.818 10.046 10.7569C9.98774 10.6957 9.95862 10.6208 9.95862 10.5321C9.95862 10.4465 9.98774 10.3746 10.046 10.3165C10.1073 10.2554 10.1839 10.2248 10.2759 10.2248H12.3586C12.4506 10.2248 12.5257 10.2554 12.5839 10.3165C12.6452 10.3746 12.6759 10.4465 12.6759 10.5321C12.6759 10.6208 12.6452 10.6957 12.5839 10.7569C12.5257 10.818 12.4506 10.8486 12.3586 10.8486H10.2759ZM10.3402 15.3119C10.1471 15.3119 9.99693 15.2599 9.88966 15.156C9.78238 15.052 9.72874 14.9006 9.72874 14.7018V12.1972C9.72874 11.9954 9.78238 11.844 9.88966 11.7431C9.99693 11.6422 10.1471 11.5917 10.3402 11.5917H13.6644C14.069 11.5917 14.2713 11.7936 14.2713 12.1972V14.7018C14.2713 15.1086 14.069 15.3119 13.6644 15.3119H10.3402ZM8 15.4495C8 15.9572 8.13027 16.3425 8.3908 16.6055C8.65441 16.8685 9.03908 17 9.54483 17H14.4552C14.9579 17 15.341 16.8685 15.6046 16.6055C15.8682 16.3425 16 15.9572 16 15.4495V8.55505C16 8.05046 15.8682 7.66514 15.6046 7.39908C15.341 7.13303 14.9579 7 14.4552 7H9.54483C9.03908 7 8.65441 7.13303 8.3908 7.39908C8.13027 7.66514 8 8.05046 8 8.55505V15.4495Z" fill="#24282C"/>
</svg>
