<svg width="44" height="44" viewBox="0 0 44 44" fill="none" xmlns="http://www.w3.org/2000/svg">
<rect width="44" height="44" rx="22" fill="#24282C"/>
<path d="M16.2267 29.9595L28.2902 17.8682L26.1379 15.7091L14.0744 27.8109L13.035 30.3702C12.965 30.5528 13 30.7143 13.14 30.8547C13.28 30.9952 13.434 31.0338 13.6019 30.9706L16.2267 29.9595ZM29.3506 16.815L30.5475 15.6354C30.8415 15.3405 30.9919 15.035 30.9989 14.719C31.0129 14.4031 30.887 14.1082 30.621 13.8343L30.1695 13.3814C29.9035 13.1076 29.6096 12.9812 29.2876 13.0023C28.9726 13.0233 28.6682 13.1778 28.3742 13.4657L27.1878 14.6558L29.3506 16.815Z" fill="white"/>
</svg>
