<svg width="44" height="44" viewBox="0 0 44 44" fill="none" xmlns="http://www.w3.org/2000/svg">
<rect width="44" height="44" rx="22" fill="#24282C"/>
<path d="M13 28.9345C13 29.3971 13.1366 29.7469 13.4099 29.9838C13.6831 30.2208 14.0121 30.3392 14.3968 30.3392C14.6924 30.3392 14.9879 30.2574 15.2835 30.0938L18.3448 28.4099V13.5169C18.2221 13.5508 18.0883 13.5987 17.9433 13.6608C17.7983 13.7228 17.6422 13.8018 17.4749 13.8977L13.9703 15.9032C13.6357 16.0893 13.3903 16.3178 13.2342 16.5886C13.0781 16.8594 13 17.1838 13 17.5617V28.9345ZM19.6998 28.0884L23.3467 30.1446C23.5028 30.2292 23.645 30.2997 23.7732 30.3561C23.9015 30.4182 24.0493 30.4662 24.2165 30.5V16.0809L20.6952 13.9739C20.4944 13.861 20.3104 13.7651 20.1431 13.6862C19.9814 13.6015 19.8336 13.5395 19.6998 13.5V28.0884ZM25.5716 30.4323C25.6273 30.4154 25.6859 30.3928 25.7472 30.3646C25.8085 30.342 25.8699 30.3138 25.9312 30.28L29.9796 27.9783C30.3364 27.7809 30.5957 27.5468 30.7574 27.276C30.9191 27.0052 31 26.6752 31 26.286V15.0739C31 14.5831 30.855 14.2249 30.5651 13.9993C30.2807 13.768 29.9182 13.6523 29.4777 13.6523C29.132 13.6523 28.7918 13.7482 28.4572 13.94L25.5716 15.5562V30.4323Z" fill="white"/>
</svg>
