<svg width="24" height="24" viewBox="0 0 24 24" fill="none" xmlns="http://www.w3.org/2000/svg">
<rect width="24" height="24" rx="12" fill="#D3F36B"/>
<path d="M11.5417 16.5282C11.5417 16.8016 11.7455 17 12.0064 17C14.2321 17 16.2826 15.5273 16.9592 13.4462C17.0815 13.0802 16.9226 12.8245 16.5638 12.8245C14.7294 12.8245 13.266 13.7945 12.4711 15.2584V12.0353C13.9223 11.8104 14.8803 10.5362 14.8803 8.94004C14.8803 8.41975 14.8069 7.88624 14.5745 7.37478C14.44 7.07496 14.1057 7.01323 13.8815 7.26014L13.0499 8.17725L12.3406 7.18519C12.1654 6.93827 11.8474 6.93827 11.668 7.18519L10.9587 8.17725L10.1271 7.26014C9.90702 7.01323 9.57683 7.07496 9.43823 7.37478C9.20995 7.89065 9.12842 8.42416 9.12842 8.94004C9.12842 10.5362 10.0864 11.8104 11.5417 12.0353V16.5282ZM10.8813 14.381C10.0538 13.4242 8.85938 12.8245 7.43263 12.8245C7.0739 12.8245 6.919 13.0802 7.04129 13.4462C7.59568 15.1834 9.11619 16.5106 10.9302 16.8854C10.8976 16.7751 10.8813 16.6517 10.8813 16.5282V14.381Z" fill="#24282C"/>
</svg>
