<svg width="24" height="24" viewBox="0 0 24 24" fill="none" xmlns="http://www.w3.org/2000/svg">
<rect width="24" height="24" rx="12" fill="#24282C"/>
<path d="M7 11.9971C7 12.4863 7.39627 12.8824 7.88578 12.8824H11.12V16.1147C11.12 16.5981 11.5105 17 12 17C12.4895 17 12.8858 16.5981 12.8858 16.1147V12.8824H16.12C16.6037 12.8824 17 12.4863 17 11.9971C17 11.5137 16.6037 11.1176 16.12 11.1176H12.8858V7.88526C12.8858 7.40186 12.4895 7 12 7C11.5105 7 11.12 7.40186 11.12 7.88526V11.1176H7.88578C7.39627 11.1176 7 11.5137 7 11.9971Z" fill="white"/>
</svg>
