<svg width="44" height="44" viewBox="0 0 44 44" fill="none" xmlns="http://www.w3.org/2000/svg">
<rect width="44" height="44" rx="22" fill="#24282C"/>
<path d="M13 21.9948C13 22.8754 13.7133 23.5882 14.5944 23.5882H20.4161V29.4065C20.4161 30.2766 21.1189 31 22 31C22.8811 31 23.5944 30.2766 23.5944 29.4065V23.5882H29.4161C30.2867 23.5882 31 22.8754 31 21.9948C31 21.1246 30.2867 20.4118 29.4161 20.4118H23.5944V14.5935C23.5944 13.7234 22.8811 13 22 13C21.1189 13 20.4161 13.7234 20.4161 14.5935V20.4118H14.5944C13.7133 20.4118 13 21.1246 13 21.9948Z" fill="white"/>
</svg>
