<svg width="44" height="44" viewBox="0 0 44 44" fill="none" xmlns="http://www.w3.org/2000/svg">
<rect width="44" height="44" rx="22" fill="#24282C"/>
<path d="M22.0043 13C21.8396 13 21.6637 13.0356 21.4763 13.1069C21.289 13.1836 21.1158 13.3015 20.9569 13.4605L14.6301 19.9895C14.4087 20.2143 14.2498 20.428 14.1533 20.6309C14.0511 20.8337 14 21.053 14 21.2887C14 21.6341 14.1192 21.9219 14.3576 22.1521C14.5904 22.3824 14.8856 22.4975 15.2432 22.4975H18.3172V28.8949C18.3172 29.5637 18.5045 30.0818 18.8792 30.4491C19.2539 30.8164 19.7818 31 20.463 31H23.5029C24.1841 31 24.7121 30.8164 25.0867 30.4491C25.4671 30.0818 25.6573 29.5637 25.6573 28.8949V22.4975H28.7312C29.0832 22.4975 29.3812 22.3824 29.6253 22.1521C29.8751 21.9219 30 21.6313 30 21.2805C30 21.0503 29.9489 20.8392 29.8467 20.6473C29.7445 20.4609 29.5742 20.2417 29.3358 19.9895L23.0516 13.4605C22.8927 13.296 22.7195 13.1782 22.5322 13.1069C22.3505 13.0356 22.1746 13 22.0043 13Z" fill="white"/>
</svg>
