<svg width="24" height="24" viewBox="0 0 24 24" fill="none" xmlns="http://www.w3.org/2000/svg">
<rect width="24" height="24" rx="12" fill="#24282C"/>
<path d="M7.93026 16.9062L13.5101 14.1843C13.8212 14.0288 14.0351 13.8149 14.1906 13.5136L16.9028 7.94344C17.2138 7.28241 16.7375 6.7672 16.057 7.10743L10.4966 9.81959C10.1953 9.95569 9.99111 10.1598 9.82586 10.4903L7.09425 16.0702C6.78318 16.7118 7.28867 17.2173 7.93026 16.9062ZM12.0034 13.2025C11.3423 13.2025 10.8174 12.6679 10.8174 12.0165C10.8174 11.3555 11.3423 10.8209 12.0034 10.8209C12.6644 10.8209 13.199 11.3555 13.199 12.0165C13.199 12.6679 12.6644 13.2025 12.0034 13.2025Z" fill="white"/>
</svg>
