<svg width="24" height="24" viewBox="0 0 24 24" fill="none" xmlns="http://www.w3.org/2000/svg">
<rect width="24" height="24" rx="12" fill="#D3F36B"/>
<path d="M8.43153 17H8.94456C9.38312 17 9.6355 16.756 9.6355 16.34V15.76C10.3844 15.816 11.1705 15.84 11.9979 15.84C12.8254 15.84 13.6156 15.816 14.3645 15.76V16.34C14.3645 16.756 14.6169 17 15.0554 17H15.5685C16.007 17 16.2594 16.756 16.2594 16.34V11.456H16.4497C16.7683 11.456 17 11.252 17 10.96V9.156C17 8.86 16.7683 8.656 16.4497 8.656H16.2594V8.3C16.2594 7.668 15.8995 7.264 15.2209 7.172C14.3769 7.056 13.2267 7 11.9979 7C10.765 7 9.62722 7.052 8.77907 7.172C8.10054 7.272 7.74059 7.672 7.74059 8.3V8.656H7.55027C7.23583 8.656 7 8.86 7 9.156V10.96C7 11.252 7.23583 11.456 7.55027 11.456H7.74059V16.34C7.74059 16.756 7.99297 17 8.43153 17ZM9.14315 12.944C8.86595 12.892 8.73355 12.728 8.73355 12.424V8.636C8.73355 8.308 8.87836 8.132 9.17625 8.088C10.5995 7.884 13.3508 7.896 14.8279 8.088C15.1258 8.132 15.2706 8.304 15.2706 8.636V12.424C15.2706 12.736 15.1341 12.896 14.8568 12.94C13.3591 13.168 10.5788 13.188 9.14315 12.944ZM9.42449 14.816C9.11419 14.816 8.87009 14.58 8.87009 14.28C8.87009 13.976 9.11419 13.74 9.42449 13.74C9.73893 13.74 9.9789 13.976 9.9789 14.28C9.9789 14.58 9.73893 14.816 9.42449 14.816ZM14.5755 14.816C14.2611 14.816 14.0211 14.58 14.0211 14.28C14.0211 13.976 14.2611 13.74 14.5755 13.74C14.8858 13.74 15.1299 13.976 15.1299 14.28C15.1299 14.58 14.8858 14.816 14.5755 14.816ZM11.1043 14.668C10.8643 14.668 10.6905 14.504 10.6905 14.272C10.6905 14.036 10.8643 13.876 11.1043 13.876H12.8916C13.1316 13.876 13.3053 14.036 13.3053 14.272C13.3053 14.504 13.1316 14.668 12.8916 14.668H11.1043Z" fill="#24282C"/>
</svg>
