<svg width="45" height="44" viewBox="0 0 45 44" fill="none" xmlns="http://www.w3.org/2000/svg">
<rect x="0.5" width="44" height="44" rx="22" fill="#24282C"/>
<path d="M22.5225 19.6041C23.0032 19.6041 23.3863 19.1971 23.3863 18.7287V16.3328L23.3112 15.2116L23.7017 15.8029L24.6105 16.7858C24.7607 16.9548 24.9635 17.0392 25.1738 17.0392C25.5719 17.0392 25.9324 16.7398 25.9324 16.302C25.9324 16.0794 25.8498 15.9181 25.6996 15.7645L23.206 13.3148C22.9807 13.0845 22.7554 13 22.5225 13C22.2822 13 22.0569 13.0845 21.8315 13.3148L19.338 15.7645C19.1878 15.9181 19.1052 16.0794 19.1052 16.302C19.1052 16.7398 19.4582 17.0392 19.8562 17.0392C20.074 17.0392 20.2768 16.9548 20.427 16.7858L21.3283 15.8029L21.7264 15.2039L21.6513 16.3328V18.7287C21.6513 19.1971 22.0343 19.6041 22.5225 19.6041ZM18.1513 31H26.8487C28.5687 31 29.5 30.0401 29.5 28.3046V21.1937C29.5 19.4505 28.5687 18.4983 26.8487 18.4983H23.6041V23.9121C23.6041 24.5111 23.1084 25.0026 22.5225 25.0026C21.9292 25.0026 21.4335 24.5111 21.4335 23.9121V18.4983H18.1513C16.4388 18.4983 15.5 19.4505 15.5 21.1937V28.3046C15.5 30.0478 16.4388 31 18.1513 31Z" fill="white"/>
</svg>
