<svg width="24" height="24" viewBox="0 0 24 24" fill="none" xmlns="http://www.w3.org/2000/svg">
<rect width="24" height="24" rx="12" fill="#D3F36B"/>
<path d="M7.99533 9.77414H8.53047L8.80909 15.9821C8.83563 16.6505 9.22039 17 9.91916 17H14.0853C14.7796 17 15.1644 16.6505 15.1953 15.9821L15.4695 9.77414H16.0047C16.2877 9.77414 16.5 9.57318 16.5 9.29358C16.5 9.01835 16.2877 8.81739 16.0047 8.81739H14.1693V8.18392C14.1693 7.42813 13.6872 7 12.8381 7H11.1575C10.3084 7 9.82629 7.42813 9.82629 8.18392V8.81739H7.99533C7.71671 8.81739 7.5 9.01835 7.5 9.29358C7.5 9.57318 7.71671 9.77414 7.99533 9.77414ZM10.9364 8.21887C10.9364 8.05723 11.0425 7.96112 11.2327 7.96112H12.7629C12.9531 7.96112 13.0636 8.05723 13.0636 8.21887V8.81739H10.9364V8.21887ZM10.556 15.5234C10.3526 15.5234 10.2066 15.3879 10.2022 15.187L10.0695 10.7265C10.0651 10.5212 10.2022 10.3814 10.4145 10.3814C10.6268 10.3814 10.7727 10.5168 10.7771 10.7221L10.9098 15.1826C10.9143 15.3836 10.7727 15.5234 10.556 15.5234ZM12.0022 15.5234C11.7899 15.5234 11.644 15.3879 11.644 15.187V10.7178C11.644 10.5168 11.7899 10.3814 12.0022 10.3814C12.2101 10.3814 12.356 10.5168 12.356 10.7178V15.187C12.356 15.3879 12.2101 15.5234 12.0022 15.5234ZM13.444 15.5234C13.2273 15.5234 13.0857 15.3836 13.0902 15.1826L13.2228 10.7221C13.2273 10.5168 13.3732 10.3858 13.5855 10.3858C13.7978 10.3858 13.9349 10.5212 13.9305 10.7265L13.7978 15.187C13.7934 15.3923 13.6474 15.5234 13.444 15.5234Z" fill="#24282C"/>
</svg>
